HIERARCHY
ROOT Hips
{
	OFFSET 0.00000 0.00000 0.00000
	CHANNELS 6 Xposition Yposition Zposition Yrotation Zrotation Xrotation 
	JOINT Lumbar
	{
		OFFSET 0 0 0
		CHANNELS 3 Zrotation Xrotation Yrotation
		JOINT Neck
		{
			OFFSET 0.00 0.2701 0.00
			CHANNELS 3 Zrotation Xrotation Yrotation
			End Site
			{
				OFFSET 0.00 0.1379 0.00
			}
		}
		JOINT RightShoulder
		{
			OFFSET 0.0119 0.2289 0.1181
			CHANNELS 3 Zrotation Xrotation Yrotation
			JOINT RightElbow
			{
				OFFSET 0.00 -0.1475 0.00
				CHANNELS 2 Zrotation Yrotation
				JOINT RightWrist
				{
					OFFSET 0.00 -0.1605 0.00
					CHANNELS 2 Zrotation Xrotation
					End Site
					{
						OFFSET 0.0040 -0.1068 0.0006
					}
				}
			}
		}
		JOINT LeftShoulder
		{
			OFFSET 0.0119 0.2289 -0.1181
			CHANNELS 3 Zrotation Xrotation Yrotation
			JOINT LeftElbow
			{
				OFFSET 0.00 -0.1475 0.00
				CHANNELS 2 Zrotation Yrotation
				JOINT LeftWrist
				{
					OFFSET 0.00 -0.1605 0.00
					CHANNELS 2 Zrotation Xrotation
					End Site
					{
						OFFSET 0.0040 -0.1068 -0.0006
					}
				}
			}
		}
	}
	JOINT RightHip
	{
		OFFSET 0.0316 -0.0424 0.0458
		CHANNELS 3 Zrotation Xrotation Yrotation
		JOINT RightKnee
		{
			OFFSET 0.00 -0.2438 0.00
			CHANNELS 1 Zrotation
			JOINT RightAnkle
			{
				OFFSET 0.00 -0.2449 0.00
				CHANNELS 3 Zrotation Xrotation Yrotation
				End Site
				{
					OFFSET 0.1237 -0.0542 0.0051
				}
			}
		}
	}
	JOINT LeftHip
	{
		OFFSET 0.0316 -0.0424 -0.0458
		CHANNELS 3 Zrotation Xrotation Yrotation
		JOINT LeftKnee
		{
			OFFSET 0.00 -0.2438 0.00
			CHANNELS 1 Zrotation
			JOINT LeftAnkle
			{
				OFFSET 0.00 -0.2449 0.00
				CHANNELS 3 Zrotation Xrotation Yrotation
				End Site
				{
					OFFSET 0.1237 -0.0542 -0.0051
				}
			}
		}
	}
}
MOTION
Frames: 11
Frame Time: 0.02
1.49043 0.31386 -0.72473 358.88396 -17.85059 -12.53368 30.97244 -3.15796 -8.39034 -29.70477 -16.06693 -2.11994 -35.85735 -19.14689 -0.7723 58.04001 82.40927 -1.57332 0.0553 -11.33022 25.89569 -9.06251 35.48668 -80.30822 -6.91533 -1.22626 9.78689 -4.08311 32.42076 0.48865 -29.5436 -27.75645 -17.35083 7.80899 3.93633 9.09105 0.51843 -2.99344 13.36445 9.24503
1.48861 0.31363 -0.72399 358.55609 -18.05573 -12.67212 30.82705 -3.21438 -7.80639 -29.62806 -16.13949 -2.11994 -35.92991 -18.57898 -0.92928 57.60234 82.40964 -1.59436 1.31847 -11.29995 26.24166 -9.18218 35.30079 -80.32287 -6.82721 -1.32931 9.82526 -4.28973 30.7334 0.4855 -31.18539 -28.92635 -17.66995 8.2491 4.13318 9.31569 0.52022 -2.66208 13.48328 9.20688
1.48663 0.31339 -0.72305 358.18552 -18.13985 -12.74266 30.52212 -3.27888 -6.93173 -29.59671 -16.22514 -2.11994 -35.97658 -17.87507 -1.06235 57.06063 82.43622 -1.57859 2.88836 -11.26248 26.58412 -9.30203 35.09851 -80.3496 -6.6617 -1.39517 9.72159 -4.43635 27.89945 0.47821 -34.01789 -30.8872 -18.20369 8.55963 4.27649 9.64118 0.52194 -2.35527 13.53353 9.10354
1.48472 0.31314 -0.72219 357.85122 -18.26733 -12.82899 30.27517 -3.35493 -6.19768 -29.54799 -16.30526 -2.11994 -36.03005 -17.25549 -1.17144 56.58798 82.4539 -1.5699 4.23099 -11.24322 26.92076 -9.39582 34.90288 -80.36989 -6.53758 -1.47752 9.66085 -4.62327 25.65148 0.47262 -36.23952 -32.42357 -18.6223 8.91671 4.43076 9.91133 0.52368 -2.04169 13.61394 9.03323
1.48283 0.31293 -0.72137 357.44597 -18.44542 -12.97667 30.08858 -3.37029 -5.42266 -29.48334 -16.37955 -2.11994 -36.10478 -16.53724 -1.42635 56.0177 82.45908 -1.60011 5.93771 -11.16723 27.29129 -9.59954 34.71835 -80.39402 -6.38738 -1.56416 9.69506 -4.76054 23.10688 0.46762 -38.73765 -34.22248 -19.11246 9.32776 4.63927 10.21944 0.52549 -1.70869 13.70207 8.95048
1.48085 0.31265 -0.72042 357.17944 -18.49063 -12.98367 29.74043 -3.51032 -4.66778 -29.46415 -16.47142 -2.11994 -36.12876 -15.99289 -1.3748 55.62951 82.49584 -1.54306 6.96827 -11.20419 27.58889 -9.57602 34.50125 -80.41299 -6.27294 -1.63157 9.4973 -4.98089 20.9171 0.46046 -40.94811 -35.66613 -19.50491 9.59696 4.72563 10.47159 0.52712 -1.42109 13.7565 8.87705
1.47867 0.31221 -0.7192 357.29178 -18.17543 -12.58975 28.96508 -4.02036 -4.01602 -29.55152 -16.59941 -2.11994 -36.0206 -15.97101 -0.45201 55.75407 82.62092 -1.23145 5.97476 -11.56773 27.6922 -8.90327 34.22984 -80.4159 -6.27745 -1.66118 8.68136 -5.4942 19.96073 0.44838 -42.08508 -35.93042 -19.57631 9.48076 4.45447 10.56558 0.52818 -1.26791 13.73453 8.84999
1.4764 0.31172 -0.71785 357.54748 -17.73445 -12.06203 28.03676 -4.64989 -3.39914 -29.68473 -16.74701 -2.11994 -35.86142 -16.12802 0.77308 56.06884 82.77566 -0.83729 4.30631 -12.0418 27.72073 -8.00589 33.91942 -80.41302 -6.32028 -1.67159 7.63815 -6.08341 19.39549 0.43416 -42.88821 -35.80207 -19.53715 9.23043 4.06839 10.59653 0.52906 -1.15701 13.68057 8.83365
1.47417 0.31125 -0.71655 357.7472 -17.36573 -11.61447 27.19094 -5.20684 -2.78251 -29.80235 -16.89189 -2.11994 -35.72518 -16.1976 1.83939 56.3075 82.91175 -0.49591 2.99923 -12.45636 27.77923 -7.22479 33.60574 -80.41206 -6.34488 -1.68605 6.70686 -6.6064 18.6893 0.42107 -43.84373 -35.8719 -19.55477 9.05757 3.75651 10.64303 0.53007 -1.01729 13.64082 8.80885
1.47193 0.31077 -0.71531 357.90769 -16.92923 -11.08255 26.28279 -5.8428 -2.08873 -29.89951 -17.0102 -2.11994 -35.59122 -16.28733 2.99575 56.49944 83.06997 -0.08954 1.46828 -12.91092 27.85492 -6.38235 33.38111 -80.41451 -6.37066 -1.71772 5.73565 -7.26346 17.8434 0.40768 -44.85293 -35.92905 -19.57316 8.81052 3.34964 10.74791 0.5309 -0.91923 13.60005 8.79619
1.46971 0.31029 -0.71389 358.18327 -16.60545 -10.69582 25.47271 -6.3405 -1.56643 -30.04943 -17.18936 -2.11994 -35.43804 -16.3805 4.03744 56.83447 83.18954 0.20151 0.24425 -13.30727 27.87666 -5.61617 32.96076 -80.40831 -6.40356 -1.71105 4.79369 -7.65731 17.3261 0.39382 -45.63635 -35.85478 -19.53465 8.68786 3.11449 10.71539 0.53203 -0.74375 13.55478 8.76257
